<svg width="8" height="12" viewBox="0 0 8 12" fill="none" xmlns="http://www.w3.org/2000/svg">
<path fill-rule="evenodd" clip-rule="evenodd" d="M0.644836 5.31134L5.52888 0.792288C5.62627 0.700338 5.7424 0.627164 5.87054 0.576996C5.99868 0.526828 6.1363 0.500663 6.27544 0.500012C6.41459 0.499362 6.55248 0.52424 6.68117 0.573207C6.80985 0.622175 6.92677 0.694261 7.02516 0.785296C7.12355 0.876331 7.20145 0.98451 7.25438 1.10358C7.3073 1.22265 7.33419 1.35024 7.33348 1.47898C7.33278 1.60772 7.3045 1.73506 7.25028 1.85362C7.19606 1.97219 7.11698 2.07964 7.0176 2.16975L2.87046 6.00696L7.0176 9.84417C7.21173 10.0275 7.31985 10.2742 7.31844 10.5309C7.31704 10.7875 7.20624 11.0332 7.01012 11.2147C6.814 11.3962 6.5484 11.4987 6.27104 11.5C5.99368 11.5013 5.72698 11.4013 5.52888 11.2216L0.644836 6.70356C0.445485 6.51905 0.333496 6.26884 0.333496 6.00794C0.333496 5.74705 0.445485 5.49683 0.644836 5.31232V5.31134Z" fill="#8C8C8C"/>
</svg>
