<svg width="8" height="12" viewBox="0 0 8 12" fill="none" xmlns="http://www.w3.org/2000/svg">
<path fill-rule="evenodd" clip-rule="evenodd" d="M7.02149 5.3035C7.22127 5.48824 7.3335 5.73877 7.3335 6C7.3335 6.26123 7.22127 6.51176 7.02149 6.6965L2.12692 11.2213C1.9284 11.4011 1.66112 11.5013 1.38317 11.5C1.10521 11.4987 0.839044 11.396 0.642498 11.2143C0.445953 11.0326 0.334913 10.7866 0.33351 10.5296C0.332106 10.2727 0.440451 10.0256 0.635001 9.84207L4.79107 6L0.635001 2.15793C0.440451 1.97441 0.332106 1.72732 0.33351 1.47037C0.334913 1.21341 0.445953 0.967353 0.642498 0.785657C0.839044 0.60396 1.10521 0.50131 1.38317 0.500012C1.66112 0.498715 1.9284 0.598874 2.12692 0.778726L7.02149 5.3035Z" fill="#343434"/>
</svg>
