<svg width="60" height="60" viewBox="0 0 60 60" fill="none" xmlns="http://www.w3.org/2000/svg">
<path d="M54 30C54 43.2548 43.2548 54 30 54C16.7452 54 6 43.2548 6 30C6 16.7452 16.7452 6 30 6C43.2548 6 54 16.7452 54 30ZM11.28 30C11.28 40.3388 19.6612 48.72 30 48.72C40.3388 48.72 48.72 40.3388 48.72 30C48.72 19.6612 40.3388 11.28 30 11.28C19.6612 11.28 11.28 19.6612 11.28 30Z" fill="#FCFDFF"/>
<path d="M30 6C33.1517 6 36.2726 6.62078 39.1844 7.82689C42.0962 9.033 44.742 10.8008 46.9706 13.0294C49.1992 15.258 50.967 17.9038 52.1731 20.8156C53.3792 23.7274 54 26.8483 54 30H48.72C48.72 27.5417 48.2358 25.1074 47.295 22.8362C46.3543 20.565 44.9754 18.5013 43.237 16.763C41.4987 15.0246 39.4351 13.6457 37.1638 12.705C34.8926 11.7642 32.4583 11.28 30 11.28V6Z" fill="#0582C5"/>
</svg>
