<svg width="18" height="18" viewBox="0 0 18 18" fill="none" xmlns="http://www.w3.org/2000/svg">
<path fill-rule="evenodd" clip-rule="evenodd" d="M11.76 10.3319L17.49 16.0619L16 17.5519L10.27 11.8219C9.2 12.5919 7.91 13.0619 6.5 13.0619C2.91 13.0619 0 10.1519 0 6.56186C0 2.97186 2.91 0.0618591 6.5 0.0618591C10.09 0.0618591 13 2.97186 13 6.56186C13 7.97186 12.53 9.26186 11.76 10.3319ZM6.5 2.06186C4.01 2.06186 2 4.07186 2 6.56186C2 9.05186 4.01 11.0619 6.5 11.0619C8.99 11.0619 11 9.05186 11 6.56186C11 4.07186 8.99 2.06186 6.5 2.06186Z" fill="#FEFFFF"/>
</svg>
