<svg width="30" height="31" viewBox="0 0 30 31" fill="none" xmlns="http://www.w3.org/2000/svg">
<path fill-rule="evenodd" clip-rule="evenodd" d="M0 15.5C0 7.21573 6.71573 0.5 15 0.5C23.2843 0.5 30 7.21573 30 15.5C30 23.7843 23.2843 30.5 15 30.5C6.71573 30.5 0 23.7843 0 15.5ZM20.7188 11.2812C21.375 11.1875 21.9375 11.0938 22.5 10.8125C22.125 11.4688 21.5625 12.0312 20.9062 12.4062C21.0938 16.8125 17.9062 21.5938 12.1875 21.5938C10.5 21.5938 8.90625 21.0312 7.5 20.1875C9.09375 20.375 10.7812 19.9062 11.9062 19.0625C10.5 19.0625 9.375 18.125 9 16.9062C9.46875 17 9.9375 16.9062 10.4062 16.8125C9 16.4375 7.96875 15.125 7.96875 13.7188C8.4375 13.9062 8.90625 14.0938 9.375 14.0938C8.0625 13.1562 7.59375 11.375 8.4375 9.96875C10.0312 11.8438 12.2812 13.0625 14.8125 13.1562C14.3438 11.2812 15.8438 9.40625 17.8125 9.40625C18.6562 9.40625 19.5 9.78125 20.0625 10.3438C20.8125 10.1562 21.4688 9.96875 22.0312 9.59375C21.8438 10.3438 21.375 10.9062 20.7188 11.2812Z" fill="#F9A01B"/>
</svg>
